<svg xmlns="http://www.w3.org/2000/svg" width="1200" height="360" viewBox="0 0 1200 360" role="img" aria-labelledby="title desc">
  <title id="title">HushWake 悄醒</title>
  <desc id="desc">轻声入睡，准时醒来。一个安全优先的 Android 智能输出闹钟与助眠声应用。</desc>
  <defs>
    <linearGradient id="background" x1="0" y1="0" x2="1" y2="1">
      <stop offset="0" stop-color="#070B13"/>
      <stop offset="0.52" stop-color="#0B101B"/>
      <stop offset="1" stop-color="#0D1522"/>
    </linearGradient>
    <radialGradient id="blueGlow" cx="0" cy="0" r="1">
      <stop offset="0" stop-color="#2B6079" stop-opacity=".40"/>
      <stop offset="1" stop-color="#2B6079" stop-opacity="0"/>
    </radialGradient>
    <radialGradient id="amberGlow" cx="0" cy="0" r="1">
      <stop offset="0" stop-color="#F5B054" stop-opacity=".24"/>
      <stop offset="1" stop-color="#F5B054" stop-opacity="0"/>
    </radialGradient>
    <linearGradient id="ring" x1="0" y1="0" x2="1" y2="0">
      <stop offset="0" stop-color="#55CFC2" stop-opacity="0"/>
      <stop offset=".28" stop-color="#55CFC2" stop-opacity=".44"/>
      <stop offset=".70" stop-color="#FFF3D9" stop-opacity=".28"/>
      <stop offset="1" stop-color="#F5B054" stop-opacity="0"/>
    </linearGradient>
    <linearGradient id="accent" x1="0" y1="0" x2="1" y2="0">
      <stop offset="0" stop-color="#55CFC2"/>
      <stop offset=".52" stop-color="#FFF3D9"/>
      <stop offset="1" stop-color="#F5B054"/>
    </linearGradient>
  </defs>

  <rect width="1200" height="360" rx="32" fill="url(#background)"/>
  <ellipse cx="170" cy="66" rx="390" ry="300" fill="url(#blueGlow)"/>
  <ellipse cx="1080" cy="360" rx="430" ry="300" fill="url(#amberGlow)"/>
  <g fill="none" stroke="url(#ring)">
    <ellipse cx="204" cy="180" rx="198" ry="142" stroke-width="2" opacity=".58"/>
    <ellipse cx="204" cy="180" rx="238" ry="174" stroke-width="1.5" opacity=".30"/>
    <ellipse cx="204" cy="180" rx="278" ry="205" stroke-width="1" opacity=".16"/>
  </g>

  <g transform="translate(76 52)">
    <rect width="256" height="256" rx="70" fill="#10182A" stroke="#27344A" stroke-width="2"/>
    <g transform="scale(2.37037037)">
      <path fill="#FFF3D9" d="M43.2 30.6H64.8C77.7 30.6 88.2 41.1 88.2 54C88.2 66.9 77.7 77.4 64.8 77.4H43.2C30.3 77.4 19.8 66.9 19.8 54C19.8 41.1 30.3 30.6 43.2 30.6Z"/>
      <path fill="#10182A" d="M43.65 38.7H64.35C72.8 38.7 79.65 45.55 79.65 54C79.65 62.45 72.8 69.3 64.35 69.3H43.65C35.2 69.3 28.35 62.45 28.35 54C28.35 45.55 35.2 38.7 43.65 38.7Z"/>
      <path fill="#F5B054" d="M40.95 51.75C43.19 51.75 45 53.56 45 55.8V60.75C45 62.99 43.19 64.8 40.95 64.8C38.71 64.8 36.9 62.99 36.9 60.75V55.8C36.9 53.56 38.71 51.75 40.95 51.75ZM54 40.95C56.24 40.95 58.05 42.76 58.05 45V60.75C58.05 62.99 56.24 64.8 54 64.8C51.76 64.8 49.95 62.99 49.95 60.75V45C49.95 42.76 51.76 40.95 54 40.95ZM67.05 46.35C69.29 46.35 71.1 48.16 71.1 50.4V60.75C71.1 62.99 69.29 64.8 67.05 64.8C64.81 64.8 63 62.99 63 60.75V50.4C63 48.16 64.81 46.35 67.05 46.35Z"/>
      <circle cx="80.55" cy="40.05" r="4.05" fill="#55CFC2"/>
    </g>
  </g>

  <g transform="translate(390 74)">
    <text x="0" y="76" fill="#FFF8EB" font-family="Segoe UI, ui-sans-serif, sans-serif" font-size="70" font-weight="750" letter-spacing="-1.5">HushWake</text>
    <text x="398" y="74" fill="#F5B054" font-family="Microsoft YaHei UI, PingFang SC, sans-serif" font-size="38" font-weight="700">悄醒</text>
    <rect x="2" y="104" width="136" height="4" rx="2" fill="url(#accent)"/>
    <text x="2" y="154" fill="#C4CCDA" font-family="Microsoft YaHei UI, PingFang SC, sans-serif" font-size="27" font-weight="500" letter-spacing="2">轻声入睡 · 准时醒来</text>
    <text x="2" y="195" fill="#8391A8" font-family="Segoe UI, Microsoft YaHei UI, sans-serif" font-size="18">安全优先的 Android 智能输出闹钟与助眠声</text>
    <g transform="translate(2 218)" font-family="Segoe UI, sans-serif" font-size="12" font-weight="600" letter-spacing="1.4">
      <rect width="132" height="34" rx="17" fill="#152033" stroke="#2B3A52"/>
      <circle cx="18" cy="17" r="4" fill="#55CFC2"/>
      <text x="31" y="21" fill="#AEB9CA">ROUTE GUARD</text>
      <g transform="translate(144 0)">
        <rect width="132" height="34" rx="17" fill="#201B17" stroke="#4A3822"/>
        <circle cx="18" cy="17" r="4" fill="#F5B054"/>
        <text x="31" y="21" fill="#CBBDA9">OFFLINE AUDIO</text>
      </g>
      <g transform="translate(288 0)">
        <rect width="124" height="34" rx="17" fill="#151C2A" stroke="#2B3A52"/>
        <circle cx="18" cy="17" r="4" fill="#FFF3D9"/>
        <text x="31" y="21" fill="#AEB9CA">ANDROID 12+</text>
      </g>
    </g>
  </g>
</svg>
